<svg xmlns="http://www.w3.org/2000/svg" viewBox="0 0 496 130"><defs><style>.cls-1{font-size:100px;font-family:OpenSans-ExtraBoldItalic, Open Sans;font-weight:800;}.cls-1,.cls-5{fill:#ff6826;}.cls-1,.cls-2{font-style:italic;}.cls-2{font-size:40px;font-family:OpenSans-LightItalic, Open Sans;font-weight:300;letter-spacing:0.03em;}.cls-2,.cls-3,.cls-4{fill:none;}.cls-2,.cls-3{stroke:#ff6826;stroke-miterlimit:10;}.cls-3{stroke-width:2px;}</style></defs><g id="Lag_3" data-name="Lag 3"><text class="cls-1" transform="translate(428.28 86.67)">R</text><text class="cls-1" transform="translate(-1.87 82.57)">OUTD</text><text class="cls-2" transform="translate(306.81 126.58)">DANMARK</text><path class="cls-3" d="M363.68,46.05c0-12.88,12.51-23.31,28-23.31"/><path class="cls-3" d="M281.94,45.8c0-12.89,12.51-23.31,28-23.31"/><path class="cls-4" d="M360.59,62.81A31.36,31.36,0,1,0,364.1,29.9a45.84,45.84,0,0,1,1.62,12.26C365.72,50.21,363.76,57.51,360.59,62.81Z"/><circle class="cls-4" cx="348.01" cy="23.05" r="5.59"/><path class="cls-4" d="M307.08,17.57a31.35,31.35,0,1,0,28.22,45c-3.09-5.28-5-12.47-5-20.41a45.89,45.89,0,0,1,1.64-12.33A31.29,31.29,0,0,0,307.08,17.57Z"/><path class="cls-5" d="M389.09,11.82a36.91,36.91,0,0,0-27.26,12,35.69,35.69,0,0,1,2.27,6.1,31.34,31.34,0,1,1-3.51,32.91,25,25,0,0,1-1.94,2.82A13.06,13.06,0,0,0,353.82,60a37,37,0,1,0,35.27-48.2Z"/><path class="cls-5" d="M338,66.37a23.85,23.85,0,0,1-2.7-3.8,31.35,31.35,0,1,1-3.36-32.74,36.19,36.19,0,0,1,2.47-6.48,37,37,0,1,0,7.93,37.22A13.55,13.55,0,0,0,338,66.37Z"/><path class="cls-5" d="M361.83,23.8c-3.24-6.71-8.23-11-13.82-11s-10.35,4.11-13.6,10.56a36.92,36.92,0,0,1,7.93,37.22A10,10,0,0,1,353.82,60a37,37,0,0,1,8-36.22ZM348,28.64a5.59,5.59,0,1,1,5.59-5.59A5.59,5.59,0,0,1,348,28.64Z"/><path class="cls-5" d="M358.65,65.63a25,25,0,0,0,1.94-2.82A31.34,31.34,0,0,1,364.1,29.9a35.69,35.69,0,0,0-2.27-6.1,37,37,0,0,0-8,36.22A13.06,13.06,0,0,1,358.65,65.63Z"/><path class="cls-5" d="M334.41,23.35a36.19,36.19,0,0,0-2.47,6.48,31.38,31.38,0,0,1,3.36,32.74,23.85,23.85,0,0,0,2.7,3.8,13.55,13.55,0,0,1,4.34-5.8,36.92,36.92,0,0,0-7.93-37.22Z"/></g></svg>
