<svg xmlns="http://www.w3.org/2000/svg" viewBox="0 0 496 130"><defs><style>.cls-1{font-size:100px;font-family:OpenSans-ExtraBoldItalic, Open Sans;font-weight:800;}.cls-1,.cls-5{fill:#144b5f;}.cls-1,.cls-2{font-style:italic;}.cls-2{font-size:40px;font-family:OpenSans-LightItalic, Open Sans;font-weight:300;letter-spacing:0.03em;}.cls-2,.cls-3,.cls-4{fill:none;}.cls-2,.cls-3{stroke:#144b5f;stroke-miterlimit:10;}.cls-3{stroke-width:2px;}</style></defs><g id="Lag_2" data-name="Lag 2"><text class="cls-1" transform="translate(430.62 86.8)">R</text><text class="cls-1" transform="translate(0.47 82.69)">OUTD</text><text class="cls-2" transform="translate(309.16 126.7)">DANMARK</text></g><g id="Lag_3" data-name="Lag 3"><path class="cls-3" d="M366,46.17c0-12.88,12.5-23.3,28-23.3"/><path class="cls-3" d="M284.29,45.92c0-12.88,12.5-23.3,28-23.3"/><path class="cls-4" d="M362.93,62.94A31.36,31.36,0,1,0,366.45,30a46.24,46.24,0,0,1,1.62,12.26C368.07,50.34,366.1,57.63,362.93,62.94Z"/><circle class="cls-4" cx="350.36" cy="23.17" r="5.59"/><path class="cls-4" d="M309.42,17.69a31.35,31.35,0,1,0,28.22,45c-3.09-5.29-5-12.48-5-20.42A45.83,45.83,0,0,1,334.28,30,31.27,31.27,0,0,0,309.42,17.69Z"/><path class="cls-5" d="M391.43,12a36.85,36.85,0,0,0-27.25,12A37.34,37.34,0,0,1,366.45,30a31.33,31.33,0,1,1-3.52,32.92A24.56,24.56,0,0,1,361,65.76a13,13,0,0,0-4.83-5.61A37,37,0,1,0,391.43,12Z"/><path class="cls-5" d="M340.34,66.49a24.89,24.89,0,0,1-2.7-3.79A31.37,31.37,0,1,1,334.28,30a35.91,35.91,0,0,1,2.48-6.48,37,37,0,1,0,7.93,37.22A13.48,13.48,0,0,0,340.34,66.49Z"/><path class="cls-5" d="M364.18,23.93c-3.25-6.71-8.23-11-13.82-11S340,17,336.76,23.48a37,37,0,0,1,7.93,37.22,10.2,10.2,0,0,1,6.13-2.11,10,10,0,0,1,5.34,1.56,37,37,0,0,1,8-36.22Zm-13.82,4.83A5.59,5.59,0,1,1,356,23.17,5.6,5.6,0,0,1,350.36,28.76Z"/><path class="cls-5" d="M361,65.76a24.56,24.56,0,0,0,1.94-2.82A31.34,31.34,0,0,1,366.45,30a37.34,37.34,0,0,0-2.27-6.09,37,37,0,0,0-8,36.22A13,13,0,0,1,361,65.76Z"/><path class="cls-5" d="M336.76,23.48A35.91,35.91,0,0,0,334.28,30a31.32,31.32,0,0,1,3.36,32.74,24.89,24.89,0,0,0,2.7,3.79,13.48,13.48,0,0,1,4.35-5.79,37,37,0,0,0-7.93-37.22Z"/></g></svg>
