<?xml version="1.0" standalone="no"?>
<!DOCTYPE svg PUBLIC "-//W3C//DTD SVG 20010904//EN"
 "http://www.w3.org/TR/2001/REC-SVG-20010904/DTD/svg10.dtd">
<svg version="1.0" xmlns="http://www.w3.org/2000/svg"
 width="260.000000pt" height="260.000000pt" viewBox="0 0 260.000000 260.000000"
 preserveAspectRatio="xMidYMid meet">
<metadata>
Created by potrace 1.11, written by Peter Selinger 2001-2013
</metadata>
<g transform="translate(0.000000,260.000000) scale(0.100000,-0.100000)"
fill="#000000" stroke="none">
<path d="M537 1920 c-225 -36 -425 -214 -490 -437 -61 -208 0 -439 156 -596
120 -120 260 -177 432 -177 165 0 294 51 413 164 l72 69 0 -49 c0 -105 75
-201 164 -211 60 -7 89 1 131 39 44 38 73 93 82 153 l6 45 61 -58 c118 -110
254 -157 431 -149 134 6 206 29 312 99 318 214 361 660 88 933 -224 224 -572
242 -817 42 l-56 -46 -15 23 c-103 157 -293 168 -398 22 l-32 -45 -56 46 c-60
50 -168 103 -242 121 -68 17 -176 22 -242 12z m258 -121 c78 -24 192 -103 237
-166 78 -106 108 -194 108 -319 0 -137 -42 -243 -140 -347 -107 -114 -230
-163 -394 -154 -123 6 -186 28 -282 100 -318 241 -240 746 136 883 105 38 220
39 335 3z m1270 16 c102 -22 188 -68 260 -140 182 -181 201 -457 46 -666 -51
-69 -144 -139 -231 -174 -67 -27 -230 -32 -305 -10 -179 52 -309 182 -360 359
-22 76 -17 239 10 306 69 173 222 300 398 329 77 13 105 12 182 -4z m-722 -26
c82 -37 48 -169 -44 -169 -80 0 -119 97 -63 154 29 28 67 33 107 15z"/>
<path d="M563 1745 c-139 -30 -276 -132 -324 -240 -28 -62 -37 -145 -17 -145
11 0 19 18 27 58 19 97 93 193 191 246 55 30 149 56 202 56 31 0 38 4 38 20 0
24 -25 25 -117 5z"/>
<path d="M1910 1749 c-77 -13 -191 -69 -250 -125 -58 -54 -107 -146 -116 -218
-6 -43 -5 -48 12 -44 14 2 21 15 25 50 23 158 213 307 392 308 30 0 37 4 37
20 0 22 -11 23 -100 9z"/>
</g>
</svg>
